# xmcd
#
# Track frame offsets:
# 182
# 29265
# 60985
# 86817
# 92305
# 121107
# 154042
# 190880
# 218802
# 228387
# 258062
#
# Disc length: 3886 seconds
#
#
# Revision: 2
# Processed by: cddbd v1.5.1PL0 Copyright (c) Steve Scherf et al.
# Submitted via: FreeRIP 2.942 
#
DISCID=7e0f2c0b
DTITLE=Walter Trout Band - No More Fish Jokes
DYEAR=1991
DGENRE=Blues
TTITLE0=Dust My Broom
TTITLE1=If You Just Try
TTITLE2=False Alarm
TTITLE3=Mongo's Dream
TTITLE4=Life In The Jungle
TTITLE5=Help Me
TTITLE6=Girl From The North Country
TTITLE7=Victor The Cajun
TTITLE8=Earrings On The Table
TTITLE9=Prisoner Of A Dream
TTITLE10=Going Down
EXTD=PRD 70372
EXTT0=
EXTT1=
EXTT2=
EXTT3=
EXTT4=
EXTT5=
EXTT6=
EXTT7=
EXTT8=
EXTT9=
EXTT10=
PLAYORDER=
